<svg width="120" height="31" viewBox="0 0 120 31" fill="none" xmlns="http://www.w3.org/2000/svg">
<rect width="120" height="31" fill="#FFD600"/>
<path d="M17.5 6.46875C15.8127 6.46875 14.1633 6.9691 12.7603 7.90652C11.3573 8.84395 10.2639 10.1763 9.61816 11.7352C8.97245 13.2941 8.8035 15.0095 9.13268 16.6644C9.46186 18.3193 10.2744 19.8394 11.4675 21.0325C12.6606 22.2256 14.1807 23.0381 15.8356 23.3673C17.4905 23.6965 19.2059 23.5276 20.7648 22.8818C22.3237 22.2361 23.6561 21.1427 24.5935 19.7397C25.5309 18.3368 26.0313 16.6873 26.0313 15C26.0289 12.7381 25.1293 10.5695 23.5299 8.97013C21.9305 7.37073 19.7619 6.47114 17.5 6.46875ZM15.3368 18.2812H19.6632C19.2227 19.7857 18.4844 21.1417 17.5 22.2097C16.5156 21.1417 15.7773 19.7857 15.3368 18.2812ZM15.0391 16.9688C14.8214 15.6653 14.8214 14.3347 15.0391 13.0312H19.9609C20.1786 14.3347 20.1786 15.6653 19.9609 16.9688H15.0391ZM10.2813 15C10.2807 14.3343 10.3726 13.6717 10.5544 13.0312H13.7093C13.5136 14.3364 13.5136 15.6636 13.7093 16.9688H10.5544C10.3726 16.3283 10.2807 15.6657 10.2813 15ZM19.6632 11.7188H15.3368C15.7773 10.2143 16.5156 8.85832 17.5 7.79027C18.4844 8.85832 19.2227 10.2143 19.6632 11.7188ZM21.2907 13.0312H24.4456C24.8098 14.3185 24.8098 15.6815 24.4456 16.9688H21.2907C21.4864 15.6636 21.4864 14.3364 21.2907 13.0312ZM23.9288 11.7188H21.0224C20.6875 10.4009 20.1251 9.1517 19.3605 8.02734C20.3373 8.28986 21.2485 8.75391 22.0352 9.38966C22.822 10.0254 23.467 10.8188 23.9288 11.7188ZM15.6395 8.02734C14.8749 9.1517 14.3125 10.4009 13.9776 11.7188H11.0712C11.533 10.8188 12.178 10.0254 12.9648 9.38966C13.7516 8.75391 14.6627 8.28986 15.6395 8.02734ZM11.0712 18.2812H13.9776C14.3125 19.5991 14.8749 20.8483 15.6395 21.9727C14.6627 21.7101 13.7516 21.2461 12.9648 20.6103C12.178 19.9746 11.533 19.1812 11.0712 18.2812ZM19.3605 21.9727C20.1251 20.8483 20.6875 19.5991 21.0224 18.2812H23.9288C23.467 19.1812 22.822 19.9746 22.0352 20.6103C21.2485 21.2461 20.3373 21.7101 19.3605 21.9727Z" fill="#212121"/>
<path d="M31.365 20V10.9H35.2C38.125 10.9 40.114 12.746 40.114 15.45C40.114 18.154 38.125 20 35.2 20H31.365ZM32.665 18.869H35.122C37.371 18.869 38.814 17.491 38.814 15.45C38.814 13.409 37.371 12.031 35.122 12.031H32.665V18.869ZM43.6552 18.869H48.9592V20H42.3552V10.9H48.7772V12.031H43.6552V14.826H48.2182V15.931H43.6552V18.869ZM57.8402 10.9H59.1402V20H58.0742L52.6142 13.214V20H51.3142V10.9H52.3802L57.8402 17.686V10.9ZM63.414 18.869H68.718V20H62.114V10.9H68.536V12.031H63.414V14.826H67.977V15.931H63.414V18.869ZM72.88 20V12.031H69.76V10.9H77.287V12.031H74.167V20H72.88ZM78.6509 20.078C78.1699 20.078 77.7669 19.701 77.7669 19.181C77.7669 18.661 78.1699 18.297 78.6509 18.297C79.1189 18.297 79.5089 18.661 79.5089 19.181C79.5089 19.701 79.1189 20.078 78.6509 20.078ZM85.2783 10.9C87.6443 10.9 89.0743 12.096 89.0743 14.072C89.0743 16.048 87.6443 17.244 85.2783 17.244H83.0293V20H81.7293V10.9H85.2783ZM85.2393 16.113C86.9033 16.113 87.7743 15.372 87.7743 14.072C87.7743 12.772 86.9033 12.031 85.2393 12.031H83.0293V16.113H85.2393ZM98.7351 20H97.3181L95.3551 17.205C95.1731 17.218 94.9781 17.231 94.7831 17.231H92.5341V20H91.2341V10.9H94.7831C97.1491 10.9 98.5791 12.096 98.5791 14.072C98.5791 15.476 97.8511 16.49 96.5771 16.945L98.7351 20ZM94.7441 16.126C96.4081 16.126 97.2791 15.372 97.2791 14.072C97.2791 12.772 96.4081 12.031 94.7441 12.031H92.5341V16.126H94.7441ZM105.037 20.104C102.242 20.104 100.188 18.115 100.188 15.45C100.188 12.785 102.242 10.796 105.037 10.796C107.806 10.796 109.86 12.772 109.86 15.45C109.86 18.128 107.806 20.104 105.037 20.104ZM105.037 18.947C107.052 18.947 108.56 17.465 108.56 15.45C108.56 13.435 107.052 11.953 105.037 11.953C102.996 11.953 101.488 13.435 101.488 15.45C101.488 17.465 102.996 18.947 105.037 18.947Z" fill="black"/>
</svg>
